<svg id="visual" viewBox="0 0 960 540" width="960" height="540" xmlns="http://www.w3.org/2000/svg" xmlns:xlink="http://www.w3.org/1999/xlink" version="1.1"><rect x="0" y="0" width="960" height="540" fill="#424874"></rect><path d="M0 157L11.5 153.2C23 149.3 46 141.7 68.8 138.5C91.7 135.3 114.3 136.7 137.2 144.3C160 152 183 166 205.8 170.5C228.7 175 251.3 170 274.2 165.2C297 160.3 320 155.7 342.8 152C365.7 148.3 388.3 145.7 411.2 149.5C434 153.3 457 163.7 480 163.3C503 163 526 152 548.8 145.2C571.7 138.3 594.3 135.7 617.2 137.7C640 139.7 663 146.3 685.8 150.5C708.7 154.7 731.3 156.3 754.2 160.3C777 164.3 800 170.7 822.8 167.5C845.7 164.3 868.3 151.7 891.2 151.3C914 151 937 163 948.5 169L960 175L960 0L948.5 0C937 0 914 0 891.2 0C868.3 0 845.7 0 822.8 0C800 0 777 0 754.2 0C731.3 0 708.7 0 685.8 0C663 0 640 0 617.2 0C594.3 0 571.7 0 548.8 0C526 0 503 0 480 0C457 0 434 0 411.2 0C388.3 0 365.7 0 342.8 0C320 0 297 0 274.2 0C251.3 0 228.7 0 205.8 0C183 0 160 0 137.2 0C114.3 0 91.7 0 68.8 0C46 0 23 0 11.5 0L0 0Z" fill="#a6b1e1"></path><path d="M0 98L11.5 103.2C23 108.3 46 118.7 68.8 122C91.7 125.3 114.3 121.7 137.2 116.7C160 111.7 183 105.3 205.8 104.2C228.7 103 251.3 107 274.2 105.7C297 104.3 320 97.7 342.8 100.5C365.7 103.3 388.3 115.7 411.2 113.8C434 112 457 96 480 90.2C503 84.3 526 88.7 548.8 95.8C571.7 103 594.3 113 617.2 111.2C640 109.3 663 95.7 685.8 95.2C708.7 94.7 731.3 107.3 754.2 111C777 114.7 800 109.3 822.8 103.7C845.7 98 868.3 92 891.2 89.5C914 87 937 88 948.5 88.5L960 89L960 0L948.5 0C937 0 914 0 891.2 0C868.3 0 845.7 0 822.8 0C800 0 777 0 754.2 0C731.3 0 708.7 0 685.8 0C663 0 640 0 617.2 0C594.3 0 571.7 0 548.8 0C526 0 503 0 480 0C457 0 434 0 411.2 0C388.3 0 365.7 0 342.8 0C320 0 297 0 274.2 0C251.3 0 228.7 0 205.8 0C183 0 160 0 137.2 0C114.3 0 91.7 0 68.8 0C46 0 23 0 11.5 0L0 0Z" fill="#c2c3ec"></path><path d="M0 56L11.5 59.8C23 63.7 46 71.3 68.8 73.3C91.7 75.3 114.3 71.7 137.2 64.2C160 56.7 183 45.3 205.8 42.7C228.7 40 251.3 46 274.2 51.8C297 57.7 320 63.3 342.8 65.5C365.7 67.7 388.3 66.3 411.2 59.7C434 53 457 41 480 39.5C503 38 526 47 548.8 49C571.7 51 594.3 46 617.2 50C640 54 663 67 685.8 70.3C708.7 73.7 731.3 67.3 754.2 58.7C777 50 800 39 822.8 34.2C845.7 29.3 868.3 30.7 891.2 35C914 39.3 937 46.7 948.5 50.3L960 54L960 0L948.5 0C937 0 914 0 891.2 0C868.3 0 845.7 0 822.8 0C800 0 777 0 754.2 0C731.3 0 708.7 0 685.8 0C663 0 640 0 617.2 0C594.3 0 571.7 0 548.8 0C526 0 503 0 480 0C457 0 434 0 411.2 0C388.3 0 365.7 0 342.8 0C320 0 297 0 274.2 0C251.3 0 228.7 0 205.8 0C183 0 160 0 137.2 0C114.3 0 91.7 0 68.8 0C46 0 23 0 11.5 0L0 0Z" fill="#dcd6f7"></path></svg>