<svg id="visual" viewBox="0 0 960 540" width="960" height="540" xmlns="http://www.w3.org/2000/svg" xmlns:xlink="http://www.w3.org/1999/xlink" version="1.1"><rect x="0" y="0" width="960" height="540" fill="#0c192c"></rect><path d="M0 429L12.3 428.3C24.7 427.7 49.3 426.3 74 430.5C98.7 434.7 123.3 444.3 148 444.7C172.7 445 197.3 436 221.8 431.2C246.3 426.3 270.7 425.7 295.2 423.3C319.7 421 344.3 417 369 416.5C393.7 416 418.3 419 443 418.5C467.7 418 492.3 414 517 414.2C541.7 414.3 566.3 418.7 591 426C615.7 433.3 640.3 443.7 664.8 446.7C689.3 449.7 713.7 445.3 738.2 438.8C762.7 432.3 787.3 423.7 812 424C836.7 424.3 861.3 433.7 886 437.7C910.7 441.7 935.3 440.3 947.7 439.7L960 439L960 541L947.7 541C935.3 541 910.7 541 886 541C861.3 541 836.7 541 812 541C787.3 541 762.7 541 738.2 541C713.7 541 689.3 541 664.8 541C640.3 541 615.7 541 591 541C566.3 541 541.7 541 517 541C492.3 541 467.7 541 443 541C418.3 541 393.7 541 369 541C344.3 541 319.7 541 295.2 541C270.7 541 246.3 541 221.8 541C197.3 541 172.7 541 148 541C123.3 541 98.7 541 74 541C49.3 541 24.7 541 12.3 541L0 541Z" fill="#0f4c75"></path><path d="M0 480L12.3 478C24.7 476 49.3 472 74 473.2C98.7 474.3 123.3 480.7 148 479.2C172.7 477.7 197.3 468.3 221.8 462.7C246.3 457 270.7 455 295.2 460.5C319.7 466 344.3 479 369 484.5C393.7 490 418.3 488 443 481.2C467.7 474.3 492.3 462.7 517 461C541.7 459.3 566.3 467.7 591 471C615.7 474.3 640.3 472.7 664.8 473.5C689.3 474.3 713.7 477.7 738.2 477.2C762.7 476.7 787.3 472.3 812 469.3C836.7 466.3 861.3 464.7 886 466.5C910.7 468.3 935.3 473.7 947.7 476.3L960 479L960 541L947.7 541C935.3 541 910.7 541 886 541C861.3 541 836.7 541 812 541C787.3 541 762.7 541 738.2 541C713.7 541 689.3 541 664.8 541C640.3 541 615.7 541 591 541C566.3 541 541.7 541 517 541C492.3 541 467.7 541 443 541C418.3 541 393.7 541 369 541C344.3 541 319.7 541 295.2 541C270.7 541 246.3 541 221.8 541C197.3 541 172.7 541 148 541C123.3 541 98.7 541 74 541C49.3 541 24.7 541 12.3 541L0 541Z" fill="#216696"></path><path d="M0 485L12.3 487.5C24.7 490 49.3 495 74 495.7C98.7 496.3 123.3 492.7 148 495.2C172.7 497.7 197.3 506.3 221.8 509.2C246.3 512 270.7 509 295.2 505.5C319.7 502 344.3 498 369 498.3C393.7 498.7 418.3 503.3 443 505.8C467.7 508.3 492.3 508.7 517 510C541.7 511.3 566.3 513.7 591 511.3C615.7 509 640.3 502 664.8 502.3C689.3 502.7 713.7 510.3 738.2 511.8C762.7 513.3 787.3 508.7 812 506.5C836.7 504.3 861.3 504.7 886 502C910.7 499.3 935.3 493.7 947.7 490.8L960 488L960 541L947.7 541C935.3 541 910.7 541 886 541C861.3 541 836.7 541 812 541C787.3 541 762.7 541 738.2 541C713.7 541 689.3 541 664.8 541C640.3 541 615.7 541 591 541C566.3 541 541.7 541 517 541C492.3 541 467.7 541 443 541C418.3 541 393.7 541 369 541C344.3 541 319.7 541 295.2 541C270.7 541 246.3 541 221.8 541C197.3 541 172.7 541 148 541C123.3 541 98.7 541 74 541C49.3 541 24.7 541 12.3 541L0 541Z" fill="#3282b8"></path></svg>