<svg id="visual" viewBox="0 0 960 540" width="960" height="540" xmlns="http://www.w3.org/2000/svg" xmlns:xlink="http://www.w3.org/1999/xlink" version="1.1"><rect x="0" y="0" width="960" height="540" fill="#424874"></rect><path d="M0 349L17.8 350.7C35.7 352.3 71.3 355.7 106.8 352.8C142.3 350 177.7 341 213.2 334.7C248.7 328.3 284.3 324.7 320 330.7C355.7 336.7 391.3 352.3 426.8 363.8C462.3 375.3 497.7 382.7 533.2 385.7C568.7 388.7 604.3 387.3 640 384.7C675.7 382 711.3 378 746.8 369.3C782.3 360.7 817.7 347.3 853.2 336.7C888.7 326 924.3 318 942.2 314L960 310L960 541L942.2 541C924.3 541 888.7 541 853.2 541C817.7 541 782.3 541 746.8 541C711.3 541 675.7 541 640 541C604.3 541 568.7 541 533.2 541C497.7 541 462.3 541 426.8 541C391.3 541 355.7 541 320 541C284.3 541 248.7 541 213.2 541C177.7 541 142.3 541 106.8 541C71.3 541 35.7 541 17.8 541L0 541Z" fill="#a6b1e1"></path><path d="M0 392L17.8 394C35.7 396 71.3 400 106.8 410.2C142.3 420.3 177.7 436.7 213.2 432.7C248.7 428.7 284.3 404.3 320 394.2C355.7 384 391.3 388 426.8 398.8C462.3 409.7 497.7 427.3 533.2 434C568.7 440.7 604.3 436.3 640 435.2C675.7 434 711.3 436 746.8 433.3C782.3 430.7 817.7 423.3 853.2 416.5C888.7 409.7 924.3 403.3 942.2 400.2L960 397L960 541L942.2 541C924.3 541 888.7 541 853.2 541C817.7 541 782.3 541 746.8 541C711.3 541 675.7 541 640 541C604.3 541 568.7 541 533.2 541C497.7 541 462.3 541 426.8 541C391.3 541 355.7 541 320 541C284.3 541 248.7 541 213.2 541C177.7 541 142.3 541 106.8 541C71.3 541 35.7 541 17.8 541L0 541Z" fill="#c2c3ec"></path><path d="M0 461L17.8 458.7C35.7 456.3 71.3 451.7 106.8 453.8C142.3 456 177.7 465 213.2 472.2C248.7 479.3 284.3 484.7 320 487.7C355.7 490.7 391.3 491.3 426.8 492.8C462.3 494.3 497.7 496.7 533.2 492.3C568.7 488 604.3 477 640 478.5C675.7 480 711.3 494 746.8 499.8C782.3 505.7 817.7 503.3 853.2 503.7C888.7 504 924.3 507 942.2 508.5L960 510L960 541L942.2 541C924.3 541 888.7 541 853.2 541C817.7 541 782.3 541 746.8 541C711.3 541 675.7 541 640 541C604.3 541 568.7 541 533.2 541C497.7 541 462.3 541 426.8 541C391.3 541 355.7 541 320 541C284.3 541 248.7 541 213.2 541C177.7 541 142.3 541 106.8 541C71.3 541 35.7 541 17.8 541L0 541Z" fill="#dcd6f7"></path></svg>