<svg id="visual" viewBox="0 0 960 540" width="960" height="540" xmlns="http://www.w3.org/2000/svg" xmlns:xlink="http://www.w3.org/1999/xlink" version="1.1"><rect x="0" y="0" width="960" height="540" fill="#0c192c"></rect><path d="M0 98L12.3 95.5C24.7 93 49.3 88 74 85.8C98.7 83.7 123.3 84.3 148 91.7C172.7 99 197.3 113 221.8 120.2C246.3 127.3 270.7 127.7 295.2 118.8C319.7 110 344.3 92 369 84.8C393.7 77.7 418.3 81.3 443 90.7C467.7 100 492.3 115 517 120.5C541.7 126 566.3 122 591 112.7C615.7 103.3 640.3 88.7 664.8 89.8C689.3 91 713.7 108 738.2 108.3C762.7 108.7 787.3 92.3 812 91.2C836.7 90 861.3 104 886 103.3C910.7 102.7 935.3 87.3 947.7 79.7L960 72L960 0L947.7 0C935.3 0 910.7 0 886 0C861.3 0 836.7 0 812 0C787.3 0 762.7 0 738.2 0C713.7 0 689.3 0 664.8 0C640.3 0 615.7 0 591 0C566.3 0 541.7 0 517 0C492.3 0 467.7 0 443 0C418.3 0 393.7 0 369 0C344.3 0 319.7 0 295.2 0C270.7 0 246.3 0 221.8 0C197.3 0 172.7 0 148 0C123.3 0 98.7 0 74 0C49.3 0 24.7 0 12.3 0L0 0Z" fill="#0f4c75"></path><path d="M0 93L12.3 89.7C24.7 86.3 49.3 79.7 74 76.7C98.7 73.7 123.3 74.3 148 73.7C172.7 73 197.3 71 221.8 69.3C246.3 67.7 270.7 66.3 295.2 65.7C319.7 65 344.3 65 369 64.8C393.7 64.7 418.3 64.3 443 66.7C467.7 69 492.3 74 517 73.8C541.7 73.7 566.3 68.3 591 70.3C615.7 72.3 640.3 81.7 664.8 82.3C689.3 83 713.7 75 738.2 73.3C762.7 71.7 787.3 76.3 812 75.3C836.7 74.3 861.3 67.7 886 63.7C910.7 59.7 935.3 58.3 947.7 57.7L960 57L960 0L947.7 0C935.3 0 910.7 0 886 0C861.3 0 836.7 0 812 0C787.3 0 762.7 0 738.2 0C713.7 0 689.3 0 664.8 0C640.3 0 615.7 0 591 0C566.3 0 541.7 0 517 0C492.3 0 467.7 0 443 0C418.3 0 393.7 0 369 0C344.3 0 319.7 0 295.2 0C270.7 0 246.3 0 221.8 0C197.3 0 172.7 0 148 0C123.3 0 98.7 0 74 0C49.3 0 24.7 0 12.3 0L0 0Z" fill="#216696"></path><path d="M0 25L12.3 25.5C24.7 26 49.3 27 74 27.3C98.7 27.7 123.3 27.3 148 26.5C172.7 25.7 197.3 24.3 221.8 28.8C246.3 33.3 270.7 43.7 295.2 44C319.7 44.3 344.3 34.7 369 31.8C393.7 29 418.3 33 443 35C467.7 37 492.3 37 517 36C541.7 35 566.3 33 591 32.5C615.7 32 640.3 33 664.8 37.2C689.3 41.3 713.7 48.7 738.2 48C762.7 47.3 787.3 38.7 812 38.3C836.7 38 861.3 46 886 50.5C910.7 55 935.3 56 947.7 56.5L960 57L960 0L947.7 0C935.3 0 910.7 0 886 0C861.3 0 836.7 0 812 0C787.3 0 762.7 0 738.2 0C713.7 0 689.3 0 664.8 0C640.3 0 615.7 0 591 0C566.3 0 541.7 0 517 0C492.3 0 467.7 0 443 0C418.3 0 393.7 0 369 0C344.3 0 319.7 0 295.2 0C270.7 0 246.3 0 221.8 0C197.3 0 172.7 0 148 0C123.3 0 98.7 0 74 0C49.3 0 24.7 0 12.3 0L0 0Z" fill="#3282b8"></path></svg>