<svg id="visual" viewBox="0 0 960 540" width="960" height="540" xmlns="http://www.w3.org/2000/svg" xmlns:xlink="http://www.w3.org/1999/xlink" version="1.1"><rect x="0" y="0" width="960" height="540" fill="#424874"></rect><path d="M0 356L11.5 358.7C23 361.3 46 366.7 68.8 375.7C91.7 384.7 114.3 397.3 137.2 403C160 408.7 183 407.3 205.8 399.2C228.7 391 251.3 376 274.2 375C297 374 320 387 342.8 393C365.7 399 388.3 398 411.2 393.5C434 389 457 381 480 384C503 387 526 401 548.8 404.2C571.7 407.3 594.3 399.7 617.2 395.8C640 392 663 392 685.8 396.3C708.7 400.7 731.3 409.3 754.2 405.2C777 401 800 384 822.8 381.7C845.7 379.3 868.3 391.7 891.2 396.5C914 401.3 937 398.7 948.5 397.3L960 396L960 541L948.5 541C937 541 914 541 891.2 541C868.3 541 845.7 541 822.8 541C800 541 777 541 754.2 541C731.3 541 708.7 541 685.8 541C663 541 640 541 617.2 541C594.3 541 571.7 541 548.8 541C526 541 503 541 480 541C457 541 434 541 411.2 541C388.3 541 365.7 541 342.8 541C320 541 297 541 274.2 541C251.3 541 228.7 541 205.8 541C183 541 160 541 137.2 541C114.3 541 91.7 541 68.8 541C46 541 23 541 11.5 541L0 541Z" fill="#a6b1e1"></path><path d="M0 415L11.5 415.7C23 416.3 46 417.7 68.8 421.2C91.7 424.7 114.3 430.3 137.2 431.3C160 432.3 183 428.7 205.8 427.5C228.7 426.3 251.3 427.7 274.2 432.3C297 437 320 445 342.8 449.7C365.7 454.3 388.3 455.7 411.2 451.2C434 446.7 457 436.3 480 435.8C503 435.3 526 444.7 548.8 444.5C571.7 444.3 594.3 434.7 617.2 431.7C640 428.7 663 432.3 685.8 437.8C708.7 443.3 731.3 450.7 754.2 453.3C777 456 800 454 822.8 453.8C845.7 453.7 868.3 455.3 891.2 448.2C914 441 937 425 948.5 417L960 409L960 541L948.5 541C937 541 914 541 891.2 541C868.3 541 845.7 541 822.8 541C800 541 777 541 754.2 541C731.3 541 708.7 541 685.8 541C663 541 640 541 617.2 541C594.3 541 571.7 541 548.8 541C526 541 503 541 480 541C457 541 434 541 411.2 541C388.3 541 365.7 541 342.8 541C320 541 297 541 274.2 541C251.3 541 228.7 541 205.8 541C183 541 160 541 137.2 541C114.3 541 91.7 541 68.8 541C46 541 23 541 11.5 541L0 541Z" fill="#c2c3ec"></path><path d="M0 479L11.5 484C23 489 46 499 68.8 499.2C91.7 499.3 114.3 489.7 137.2 483.3C160 477 183 474 205.8 471.3C228.7 468.7 251.3 466.3 274.2 465.7C297 465 320 466 342.8 472.3C365.7 478.7 388.3 490.3 411.2 495C434 499.7 457 497.3 480 496.7C503 496 526 497 548.8 496.2C571.7 495.3 594.3 492.7 617.2 493.2C640 493.7 663 497.3 685.8 499C708.7 500.7 731.3 500.3 754.2 500.5C777 500.7 800 501.3 822.8 497.2C845.7 493 868.3 484 891.2 477.3C914 470.7 937 466.3 948.5 464.2L960 462L960 541L948.5 541C937 541 914 541 891.2 541C868.3 541 845.7 541 822.8 541C800 541 777 541 754.2 541C731.3 541 708.7 541 685.8 541C663 541 640 541 617.2 541C594.3 541 571.7 541 548.8 541C526 541 503 541 480 541C457 541 434 541 411.2 541C388.3 541 365.7 541 342.8 541C320 541 297 541 274.2 541C251.3 541 228.7 541 205.8 541C183 541 160 541 137.2 541C114.3 541 91.7 541 68.8 541C46 541 23 541 11.5 541L0 541Z" fill="#dcd6f7"></path></svg>